<svg width="1200" height="630" viewBox="0 0 1200 630" fill="none" xmlns="http://www.w3.org/2000/svg">
<g clip-path="url(#clip0_1164_7874)">
<path d="M1200 0H0V630H1200V0Z" fill="white"/>
<mask id="mask0_1164_7874" style="mask-type:luminance" maskUnits="userSpaceOnUse" x="400" y="115" width="400" height="400">
<path d="M800 115H400V515H800V115Z" fill="white"/>
</mask>
<g mask="url(#mask0_1164_7874)">
<path d="M663.205 399.246C656.183 397.446 648.961 397.624 642.161 399.579L613.383 352.379C612.494 350.936 610.628 350.446 609.161 351.291L597.25 358.159C595.739 359.024 595.228 361.001 596.139 362.491L624.939 409.759C610.117 424.601 608.561 449.691 625.161 466.446C627.828 469.136 630.917 471.401 634.272 473.159C640.406 476.336 646.894 477.891 653.318 477.891C663.605 477.891 673.673 473.891 681.605 466.179C684.383 463.491 686.718 460.336 688.495 456.914C695.205 444.046 694.718 429.514 687.673 417.601C682.228 408.424 673.56 401.891 663.205 399.246ZM672.628 442.914C671.295 448.069 668.028 452.424 663.428 455.136C658.828 457.846 653.45 458.601 648.272 457.291C642.094 455.714 637.094 451.359 634.628 445.269C631.494 437.514 633.717 428.336 640.072 422.891C643.872 419.624 648.494 417.959 653.228 417.959C654.895 417.959 656.583 418.159 658.228 418.601C663.405 419.936 667.74 423.179 670.473 427.779C673.183 432.379 673.96 437.736 672.628 442.914ZM751.628 233.069C729.14 233.069 710.228 248.513 704.828 269.313H648.383C646.65 269.313 645.25 270.713 645.25 272.447V290.358C645.25 292.091 646.65 293.491 648.383 293.491H704.828C710.228 314.313 729.118 329.736 751.628 329.736C778.318 329.736 800.005 308.047 800.005 281.402C800.005 254.758 778.295 233.069 751.628 233.069ZM775.36 286.136C773.54 295.647 765.873 303.291 756.383 305.113C739.36 308.358 724.65 293.669 727.895 276.669C729.718 267.158 737.36 259.513 746.873 257.691C763.895 254.425 778.605 269.136 775.36 286.136ZM466.183 180.624C468.872 181.291 471.606 181.624 474.317 181.624C477.517 181.624 480.672 181.136 483.717 180.224L503.361 212.38C504.25 213.825 506.117 214.313 507.583 213.469L516.606 208.269C518.117 207.402 518.628 205.425 517.717 203.936L498.006 171.647C508.406 161.091 510.828 144.447 502.85 131.18C498.272 123.558 490.983 118.18 482.339 116.024C472.45 113.558 462.139 115.669 453.895 121.958C441.739 131.224 437.517 148.18 443.895 162.069C448.228 171.491 456.294 178.18 466.183 180.624ZM464.339 134.936C467.295 132.78 470.739 131.647 474.228 131.647C475.583 131.647 476.939 131.824 478.295 132.158C483.45 133.447 487.628 137.024 489.717 142.069C492.606 149.069 490.161 157.424 483.983 161.824C479.939 164.713 474.983 165.647 470.228 164.447C465.072 163.158 460.895 159.58 458.806 154.536C455.939 147.602 458.295 139.38 464.339 134.936ZM524.717 359.224L506.317 348.624C504.828 347.759 502.894 348.269 502.05 349.779L469.317 407.046C442.05 399.779 411.828 414.269 402.45 444.114C400.428 450.536 399.672 457.336 400.228 464.046C401.806 482.914 412.161 498.914 428.072 507.891C436.45 512.601 445.695 515.024 455.05 515.024C463.361 515.024 471.761 513.114 479.695 509.269C486.117 506.159 491.894 501.714 496.539 496.314C508.983 481.824 513.05 463.046 508.139 445.359C505.472 435.759 500.317 427.291 493.294 420.559L525.917 363.514C526.761 362.024 526.25 360.114 524.761 359.246L524.717 359.224ZM479.05 473.559L474.317 478.759C470.739 482.691 466.161 485.759 460.961 486.891C454.339 488.336 447.517 487.336 441.561 483.979C435.161 480.379 430.561 474.491 428.583 467.424C426.606 460.359 427.517 452.936 431.139 446.559C436.183 437.624 445.539 432.601 455.139 432.601C459.717 432.601 464.361 433.736 468.606 436.159C475.006 439.759 479.606 445.646 481.583 452.714C483.561 459.779 482.65 467.201 479.028 473.579L479.05 473.559Z" fill="url(#paint0_linear_1164_7874)"/>
<path d="M620.465 232.493L572.198 204.648C564.665 200.315 555.376 200.315 547.843 204.648L499.576 232.493C492.043 236.848 487.398 244.871 487.398 253.56V309.226C487.398 317.915 492.043 325.959 499.576 330.315L547.887 358.161C555.421 362.493 564.71 362.493 572.243 358.161L620.554 330.315C628.087 325.959 632.732 317.937 632.732 309.226V253.56C632.71 244.848 628.021 236.804 620.465 232.493Z" fill="url(#paint1_linear_1164_7874)"/>
</g>
</g>
<defs>
<linearGradient id="paint0_linear_1164_7874" x1="600.006" y1="515.001" x2="600.006" y2="115.002" gradientUnits="userSpaceOnUse">
<stop stop-color="#198AB3"/>
<stop offset="1" stop-color="#32BEDD"/>
</linearGradient>
<linearGradient id="paint1_linear_1164_7874" x1="560.065" y1="361.426" x2="560.065" y2="201.404" gradientUnits="userSpaceOnUse">
<stop stop-color="#6F4BB2"/>
<stop offset="1" stop-color="#C69AEB"/>
</linearGradient>
<clipPath id="clip0_1164_7874">
<rect width="1200" height="630" fill="white"/>
</clipPath>
</defs>
</svg>
