<svg width="14" height="13" viewBox="0 0 14 13" fill="none" xmlns="http://www.w3.org/2000/svg">
  <path
    d="M4.72822 9.37021C4.89689 9.48963 5.09862 9.55343 5.30528 9.55271V9.54994C5.50014 9.55036 5.69083 9.49354 5.85369 9.38653C6.01654 9.27951 6.14437 9.12703 6.22131 8.948L6.64447 7.66126C6.7422 7.36977 6.9064 7.10501 7.12409 6.88791C7.34178 6.67082 7.607 6.50735 7.89876 6.41043L9.12613 6.01143C9.32383 5.94196 9.4946 5.81192 9.61412 5.6398C9.73365 5.46768 9.79585 5.26225 9.79187 5.05273C9.78789 4.84322 9.71794 4.64029 9.59197 4.47283C9.466 4.30537 9.29043 4.1819 9.09023 4.11999L7.87874 3.72651C7.58568 3.629 7.3194 3.46447 7.10107 3.24602C6.88273 3.02756 6.71836 2.76119 6.621 2.46808L6.222 1.2414C6.15242 1.04603 6.02371 0.877179 5.85375 0.758319C5.68379 0.639458 5.48103 0.576487 5.27364 0.578157C5.06625 0.579827 4.86453 0.646055 4.69651 0.767638C4.52849 0.88922 4.40251 1.06012 4.33608 1.25659L3.93363 2.49362C3.83659 2.77821 3.67619 3.03705 3.46453 3.25062C3.25288 3.46419 2.99549 3.62691 2.71179 3.72651L1.48511 4.12068C1.3392 4.17171 1.20715 4.25598 1.09941 4.36682C0.991663 4.47767 0.911176 4.61205 0.864307 4.75936C0.817437 4.90666 0.805469 5.06285 0.829348 5.21558C0.853228 5.3683 0.9123 5.51338 1.0019 5.63935C1.12401 5.81122 1.2972 5.94021 1.49685 6.00798L2.70765 6.40076C3.00146 6.49906 3.26831 6.66451 3.487 6.88398C3.54573 6.94226 3.60061 7.00429 3.6513 7.06967C3.78879 7.24763 3.895 7.44768 3.96539 7.66126L4.36439 8.88656C4.43236 9.08172 4.55955 9.2508 4.72822 9.37021ZM10.0206 12.8544C9.88903 12.7607 9.79008 12.6282 9.73753 12.4755L9.5111 11.7803C9.46707 11.6481 9.39313 11.5279 9.29504 11.429C9.19668 11.3303 9.07658 11.2561 8.94436 11.2122L8.26027 10.9892C8.10121 10.9359 7.96319 10.8334 7.8661 10.6965C7.77134 10.5638 7.72063 10.4047 7.72114 10.2416C7.72135 10.0775 7.77275 9.91751 7.86817 9.78396C7.96292 9.64971 8.09777 9.54893 8.25336 9.4961L8.94781 9.27106C9.07691 9.22523 9.1938 9.15045 9.28953 9.05245C9.38525 8.95445 9.45727 8.83584 9.50006 8.7057L9.72372 8.02091C9.77634 7.86612 9.87574 7.7315 10.0082 7.63565C10.1406 7.5398 10.2996 7.48747 10.4631 7.48587C10.6266 7.48428 10.7865 7.53351 10.9208 7.62676C11.0551 7.72002 11.1571 7.85268 11.2127 8.00642L11.4398 8.70639C11.4843 8.83761 11.5585 8.95674 11.6567 9.05447C11.7549 9.15219 11.8744 9.22586 12.0059 9.26968L12.6907 9.49265C12.8485 9.54202 12.9868 9.63983 13.086 9.77221C13.1851 9.90459 13.2401 10.0648 13.2431 10.2302C13.2461 10.3956 13.1969 10.5577 13.1026 10.6936C13.0083 10.8294 12.8736 10.9321 12.7176 10.9872L12.0176 11.2143C11.8864 11.259 11.7672 11.3332 11.669 11.431C11.5708 11.5296 11.4968 11.6496 11.4529 11.7817L11.2307 12.4644C11.1771 12.6234 11.0744 12.7612 10.9373 12.8579C10.8047 12.9532 10.6456 13.0044 10.4824 13.0042C10.3165 13.0042 10.1549 12.9518 10.0206 12.8544Z"
    fill="url(#paint0_linear_981_37679)"/>
  <defs>
    <linearGradient id="paint0_linear_981_37679" x1="0.817383" y1="6.79119" x2="13.2432" y2="6.79119"
                    gradientUnits="userSpaceOnUse">
      <stop offset="0.104167" stop-color="#335CCC"/>
      <stop offset="1" stop-color="#8330E9"/>
    </linearGradient>
  </defs>
</svg>
