<svg width="16" height="18" viewBox="0 0 16 18" fill="none" xmlns="http://www.w3.org/2000/svg">
<g clip-path="url(#clip0_7841_1756)">
<path d="M10.5282 12.3698C10.2473 12.2978 9.95844 12.3049 9.68644 12.3831L8.53533 10.4951C8.49977 10.4374 8.42511 10.4178 8.36644 10.4516L7.89 10.7263C7.82955 10.7609 7.80911 10.84 7.84555 10.8996L8.99755 12.7903C8.40466 13.384 8.34244 14.3876 9.00644 15.0578C9.11311 15.1654 9.23666 15.256 9.37089 15.3263C9.61622 15.4534 9.87577 15.5156 10.1327 15.5156C10.5442 15.5156 10.9469 15.3556 11.2642 15.0471C11.3753 14.9396 11.4687 14.8134 11.5398 14.6765C11.8082 14.1618 11.7887 13.5805 11.5069 13.104C11.2891 12.7369 10.9424 12.4756 10.5282 12.3698ZM10.9051 14.1165C10.8518 14.3227 10.7211 14.4969 10.5371 14.6054C10.3531 14.7138 10.138 14.744 9.93089 14.6916C9.68377 14.6285 9.48377 14.4543 9.38511 14.2107C9.25977 13.9005 9.34866 13.5334 9.60289 13.3156C9.75489 13.1849 9.93977 13.1183 10.1291 13.1183C10.1958 13.1183 10.2633 13.1263 10.3291 13.144C10.5362 13.1974 10.7096 13.3271 10.8189 13.5111C10.9273 13.6951 10.9584 13.9094 10.9051 14.1165ZM14.0651 5.7227C13.1656 5.7227 12.4091 6.34048 12.1931 7.17248H9.93533C9.866 7.17248 9.81 7.22848 9.81 7.29781V8.01426C9.81 8.08359 9.866 8.13959 9.93533 8.13959H12.1931C12.4091 8.97248 13.1647 9.58937 14.0651 9.58937C15.1327 9.58937 16.0002 8.72181 16.0002 7.65604C16.0002 6.59026 15.1318 5.7227 14.0651 5.7227ZM15.0144 7.84537C14.9416 8.22581 14.6349 8.53159 14.2553 8.60448C13.5744 8.73426 12.986 8.1467 13.1158 7.4667C13.1887 7.08626 13.4944 6.78048 13.8749 6.70759C14.5558 6.57693 15.1442 7.16537 15.0144 7.84537ZM2.64733 3.62492C2.75489 3.65159 2.86422 3.66492 2.97266 3.66492C3.10066 3.66492 3.22689 3.64537 3.34866 3.60892L4.13444 4.89515C4.17 4.95293 4.24466 4.97248 4.30333 4.9387L4.66422 4.7307C4.72466 4.69604 4.74511 4.61693 4.70866 4.55737L3.92022 3.26581C4.33622 2.84359 4.43311 2.17781 4.114 1.64715C3.93089 1.34226 3.63933 1.12715 3.29355 1.04092C2.898 0.942258 2.48555 1.0267 2.15578 1.27826C1.66955 1.64892 1.50066 2.32715 1.75578 2.8827C1.92911 3.25959 2.25266 3.52715 2.64822 3.62492H2.64733ZM2.57355 1.79737C2.69178 1.71115 2.82955 1.66581 2.96911 1.66581C3.02333 1.66581 3.07755 1.67292 3.13178 1.68626C3.338 1.73781 3.50511 1.88092 3.58866 2.0827C3.70422 2.3627 3.60644 2.69692 3.35933 2.87292C3.19755 2.98848 2.99933 3.02581 2.80911 2.97781C2.60289 2.92626 2.43578 2.78315 2.35222 2.58137C2.23755 2.30404 2.33178 1.97515 2.57355 1.79737ZM4.98866 10.7689L4.25266 10.3449C4.19311 10.3103 4.11577 10.3307 4.082 10.3911L2.77266 12.6818C1.682 12.3911 0.473109 12.9707 0.0979974 14.1645C0.0171086 14.4214 -0.0131137 14.6934 0.00910856 14.9618C0.0722197 15.7165 0.486442 16.3565 1.12289 16.7156C1.458 16.904 1.82778 17.0009 2.202 17.0009C2.53444 17.0009 2.87044 16.9245 3.18778 16.7707C3.44466 16.6463 3.67577 16.4685 3.86155 16.2525C4.35933 15.6729 4.522 14.9218 4.32555 14.2143C4.21889 13.8303 4.01266 13.4916 3.73177 13.2223L5.03666 10.9405C5.07044 10.8809 5.05 10.8045 4.99044 10.7698L4.98866 10.7689ZM3.162 15.3423L2.97266 15.5503C2.82955 15.7076 2.64644 15.8303 2.43844 15.8756C2.17355 15.9334 1.90066 15.8934 1.66244 15.7591C1.40644 15.6151 1.22244 15.3796 1.14333 15.0969C1.06422 14.8143 1.10066 14.5174 1.24555 14.2623C1.44733 13.9049 1.82155 13.704 2.20555 13.704C2.38866 13.704 2.57444 13.7494 2.74422 13.8463C3.00022 13.9903 3.18422 14.2258 3.26333 14.5085C3.34244 14.7911 3.306 15.088 3.16111 15.3431L3.162 15.3423Z" fill="url(#paint0_linear_7841_1756)"/>
<path d="M8.81867 5.69959L6.888 4.58581C6.58667 4.41248 6.21511 4.41248 5.91378 4.58581L3.98311 5.69959C3.68178 5.87381 3.496 6.1947 3.496 6.54226V8.76892C3.496 9.11648 3.68178 9.43825 3.98311 9.61248L5.91556 10.7263C6.21689 10.8996 6.58845 10.8996 6.88978 10.7263L8.82222 9.61248C9.12356 9.43825 9.30933 9.11737 9.30933 8.76892V6.54226C9.30845 6.19381 9.12089 5.87203 8.81867 5.69959Z" fill="url(#paint1_linear_7841_1756)"/>
</g>
<defs>
<linearGradient id="paint0_linear_7841_1756" x1="8.00022" y1="17" x2="8.00022" y2="1.00004" gradientUnits="userSpaceOnUse">
<stop stop-color="#198AB3"/>
<stop offset="1" stop-color="#32BEDD"/>
</linearGradient>
<linearGradient id="paint1_linear_7841_1756" x1="6.40267" y1="10.8569" x2="6.40267" y2="4.45603" gradientUnits="userSpaceOnUse">
<stop stop-color="#6F4BB2"/>
<stop offset="1" stop-color="#C69AEB"/>
</linearGradient>
<clipPath id="clip0_7841_1756">
<rect width="16" height="16" fill="white" transform="translate(0 1)"/>
</clipPath>
</defs>
</svg>
